%TF.GenerationSoftware,KiCad,Pcbnew,(5.1.12)-1*%
%TF.CreationDate,2024-01-05T22:51:58+02:00*%
%TF.ProjectId,FlexBandage,466c6578-4261-46e6-9461-67652e6b6963,rev?*%
%TF.SameCoordinates,Original*%
%TF.FileFunction,OtherDrawing,Comment*%
%FSLAX46Y46*%
G04 Gerber Fmt 4.6, Leading zero omitted, Abs format (unit mm)*
G04 Created by KiCad (PCBNEW (5.1.12)-1) date 2024-01-05 22:51:58*
%MOMM*%
%LPD*%
G01*
G04 APERTURE LIST*
%ADD10C,0.500000*%
%ADD11C,0.150000*%
G04 APERTURE END LIST*
D10*
X124979947Y-126087311D02*
X125384008Y-125885281D01*
X125889084Y-125380205D01*
X125990099Y-125077159D01*
X125990099Y-124875128D01*
X125889084Y-124572083D01*
X125687054Y-124370052D01*
X125384008Y-124269037D01*
X125181977Y-124269037D01*
X124878932Y-124370052D01*
X124373855Y-124673098D01*
X124070810Y-124774113D01*
X123868779Y-124774113D01*
X123565733Y-124673098D01*
X123363703Y-124471067D01*
X123262688Y-124168022D01*
X123262688Y-123965991D01*
X123363703Y-123662945D01*
X123868779Y-123157869D01*
X124272840Y-122955838D01*
X124777916Y-122248732D02*
X125990099Y-121036549D01*
X127505328Y-123763961D02*
X125384008Y-121642640D01*
X128818527Y-122450762D02*
X126697206Y-120329442D01*
X129424618Y-119622335D02*
X128717511Y-120329442D01*
X129828679Y-121440610D02*
X127707359Y-119319289D01*
X128717511Y-118309137D01*
X131242893Y-117804061D02*
X130535786Y-118511167D01*
X131646954Y-119622335D02*
X129525633Y-117501015D01*
X130535786Y-116490862D01*
X132354061Y-116692893D02*
X133061167Y-115985786D01*
X134475381Y-116793908D02*
X133465228Y-117804061D01*
X131343908Y-115682740D01*
X132354061Y-114672588D01*
X135384518Y-115884771D02*
X133263198Y-113763450D01*
X136596701Y-114672588D01*
X134475381Y-112551267D01*
X136495686Y-112551267D02*
X137202793Y-111844161D01*
X138617006Y-112652283D02*
X137606854Y-113662435D01*
X135485533Y-111541115D01*
X136495686Y-110530962D01*
X140738327Y-110530962D02*
X139021067Y-110227916D01*
X139526144Y-111743145D02*
X137404823Y-109621825D01*
X138212945Y-108813703D01*
X138515991Y-108712688D01*
X138718022Y-108712688D01*
X139021067Y-108813703D01*
X139324113Y-109116749D01*
X139425128Y-109419794D01*
X139425128Y-109621825D01*
X139324113Y-109924871D01*
X138515991Y-110732993D01*
D11*
X118830000Y-126930000D02*
X118830000Y-107930000D01*
X143840000Y-126930000D02*
X118830000Y-126930000D01*
X143840000Y-107930000D02*
X143840000Y-126930000D01*
X118830000Y-107930000D02*
X143840000Y-107930000D01*
M02*
