%TF.GenerationSoftware,KiCad,Pcbnew,(5.1.12)-1*%
%TF.CreationDate,2024-01-05T22:51:58+02:00*%
%TF.ProjectId,FlexBandage,466c6578-4261-46e6-9461-67652e6b6963,rev?*%
%TF.SameCoordinates,Original*%
%TF.FileFunction,Paste,Top*%
%TF.FilePolarity,Positive*%
%FSLAX46Y46*%
G04 Gerber Fmt 4.6, Leading zero omitted, Abs format (unit mm)*
G04 Created by KiCad (PCBNEW (5.1.12)-1) date 2024-01-05 22:51:58*
%MOMM*%
%LPD*%
G01*
G04 APERTURE LIST*
%ADD10C,0.001000*%
%ADD11C,0.010000*%
%ADD12C,0.100000*%
%ADD13R,1.000000X0.700000*%
%ADD14R,1.100000X0.550000*%
%ADD15R,0.750000X0.850000*%
%ADD16C,0.250000*%
%ADD17R,1.060000X0.650000*%
%ADD18R,2.500000X2.800000*%
%ADD19R,0.600000X1.700000*%
%ADD20R,0.400000X1.800000*%
%ADD21R,0.600000X0.700000*%
G04 APERTURE END LIST*
D10*
%TO.C,U4*%
G36*
X139776380Y-118292280D02*
G01*
X139951380Y-118472280D01*
X140026380Y-118472280D01*
X140026380Y-118072280D01*
X139776380Y-118072280D01*
X139776380Y-118292280D01*
G37*
X139776380Y-118292280D02*
X139951380Y-118472280D01*
X140026380Y-118472280D01*
X140026380Y-118072280D01*
X139776380Y-118072280D01*
X139776380Y-118292280D01*
G36*
X139376380Y-118292280D02*
G01*
X139201380Y-118472280D01*
X139126380Y-118472280D01*
X139126380Y-118072280D01*
X139376380Y-118072280D01*
X139376380Y-118292280D01*
G37*
X139376380Y-118292280D02*
X139201380Y-118472280D01*
X139126380Y-118472280D01*
X139126380Y-118072280D01*
X139376380Y-118072280D01*
X139376380Y-118292280D01*
G36*
X139776380Y-119152280D02*
G01*
X139951380Y-118972280D01*
X140026380Y-118972280D01*
X140026380Y-119372280D01*
X139776380Y-119372280D01*
X139776380Y-119152280D01*
G37*
X139776380Y-119152280D02*
X139951380Y-118972280D01*
X140026380Y-118972280D01*
X140026380Y-119372280D01*
X139776380Y-119372280D01*
X139776380Y-119152280D01*
G36*
X139376380Y-119152280D02*
G01*
X139126380Y-118902280D01*
X139126380Y-119372280D01*
X139376380Y-119372280D01*
X139376380Y-119152280D01*
G37*
X139376380Y-119152280D02*
X139126380Y-118902280D01*
X139126380Y-119372280D01*
X139376380Y-119372280D01*
X139376380Y-119152280D01*
D11*
%TO.C,U1*%
G36*
X127460000Y-115634700D02*
G01*
X128360000Y-115634700D01*
X128360000Y-116534700D01*
X127460000Y-116534700D01*
X127460000Y-115634700D01*
G37*
X127460000Y-115634700D02*
X128360000Y-115634700D01*
X128360000Y-116534700D01*
X127460000Y-116534700D01*
X127460000Y-115634700D01*
G36*
X126060000Y-115634700D02*
G01*
X126960000Y-115634700D01*
X126960000Y-116534700D01*
X126060000Y-116534700D01*
X126060000Y-115634700D01*
G37*
X126060000Y-115634700D02*
X126960000Y-115634700D01*
X126960000Y-116534700D01*
X126060000Y-116534700D01*
X126060000Y-115634700D01*
G36*
X126060000Y-112834700D02*
G01*
X126960000Y-112834700D01*
X126960000Y-113734700D01*
X126060000Y-113734700D01*
X126060000Y-112834700D01*
G37*
X126060000Y-112834700D02*
X126960000Y-112834700D01*
X126960000Y-113734700D01*
X126060000Y-113734700D01*
X126060000Y-112834700D01*
G36*
X126060000Y-114234700D02*
G01*
X126960000Y-114234700D01*
X126960000Y-115134700D01*
X126060000Y-115134700D01*
X126060000Y-114234700D01*
G37*
X126060000Y-114234700D02*
X126960000Y-114234700D01*
X126960000Y-115134700D01*
X126060000Y-115134700D01*
X126060000Y-114234700D01*
G36*
X128860000Y-114234700D02*
G01*
X129760000Y-114234700D01*
X129760000Y-115134700D01*
X128860000Y-115134700D01*
X128860000Y-114234700D01*
G37*
X128860000Y-114234700D02*
X129760000Y-114234700D01*
X129760000Y-115134700D01*
X128860000Y-115134700D01*
X128860000Y-114234700D01*
G36*
X128860000Y-115634700D02*
G01*
X129760000Y-115634700D01*
X129760000Y-116534700D01*
X128860000Y-116534700D01*
X128860000Y-115634700D01*
G37*
X128860000Y-115634700D02*
X129760000Y-115634700D01*
X129760000Y-116534700D01*
X128860000Y-116534700D01*
X128860000Y-115634700D01*
G36*
X128860000Y-112834700D02*
G01*
X129760000Y-112834700D01*
X129760000Y-113734700D01*
X128860000Y-113734700D01*
X128860000Y-112834700D01*
G37*
X128860000Y-112834700D02*
X129760000Y-112834700D01*
X129760000Y-113734700D01*
X128860000Y-113734700D01*
X128860000Y-112834700D01*
G36*
X127460000Y-112834700D02*
G01*
X128360000Y-112834700D01*
X128360000Y-113734700D01*
X127460000Y-113734700D01*
X127460000Y-112834700D01*
G37*
X127460000Y-112834700D02*
X128360000Y-112834700D01*
X128360000Y-113734700D01*
X127460000Y-113734700D01*
X127460000Y-112834700D01*
G36*
X127460000Y-114234700D02*
G01*
X128360000Y-114234700D01*
X128360000Y-115134700D01*
X127460000Y-115134700D01*
X127460000Y-114234700D01*
G37*
X127460000Y-114234700D02*
X128360000Y-114234700D01*
X128360000Y-115134700D01*
X127460000Y-115134700D01*
X127460000Y-114234700D01*
%TD*%
D12*
%TO.C,U4*%
G36*
X139576380Y-119061691D02*
G01*
X139236969Y-118722280D01*
X139576380Y-118382869D01*
X139915791Y-118722280D01*
X139576380Y-119061691D01*
G37*
%TD*%
D13*
%TO.C,S1*%
X131634000Y-121300000D03*
X127234000Y-121300000D03*
X131634000Y-125000000D03*
X127234000Y-125000000D03*
D14*
X129434000Y-120625000D03*
X129434000Y-125675000D03*
%TD*%
D15*
%TO.C,Y1*%
X127945000Y-108820000D03*
X127945000Y-110170000D03*
X126895000Y-110170000D03*
X126895000Y-108820000D03*
%TD*%
D16*
%TO.C,U3*%
X142261000Y-123409000D03*
X141861000Y-123409000D03*
X142261000Y-123009000D03*
X141861000Y-123009000D03*
X142261000Y-122609000D03*
X141861000Y-122609000D03*
%TD*%
D17*
%TO.C,U2*%
X133870000Y-119135000D03*
X133870000Y-117235000D03*
X136070000Y-117235000D03*
X136070000Y-118185000D03*
X136070000Y-119135000D03*
%TD*%
D18*
%TO.C,J1*%
X133800000Y-111980000D03*
X142300000Y-111980000D03*
D19*
X136550000Y-114430000D03*
X137550000Y-114430000D03*
X138550000Y-114430000D03*
X139550000Y-114430000D03*
%TD*%
D20*
%TO.C,ANT1*%
X119310000Y-112930000D03*
X122410000Y-112930000D03*
%TD*%
%TO.C,U1*%
G36*
G01*
X129955000Y-113061600D02*
X129955000Y-112807800D01*
G75*
G02*
X129963100Y-112799700I8100J0D01*
G01*
X130756900Y-112799700D01*
G75*
G02*
X130765000Y-112807800I0J-8100D01*
G01*
X130765000Y-113061600D01*
G75*
G02*
X130756900Y-113069700I-8100J0D01*
G01*
X129963100Y-113069700D01*
G75*
G02*
X129955000Y-113061600I0J8100D01*
G01*
G37*
G36*
G01*
X129955000Y-113561600D02*
X129955000Y-113307800D01*
G75*
G02*
X129963100Y-113299700I8100J0D01*
G01*
X130756900Y-113299700D01*
G75*
G02*
X130765000Y-113307800I0J-8100D01*
G01*
X130765000Y-113561600D01*
G75*
G02*
X130756900Y-113569700I-8100J0D01*
G01*
X129963100Y-113569700D01*
G75*
G02*
X129955000Y-113561600I0J8100D01*
G01*
G37*
G36*
G01*
X129955000Y-114061600D02*
X129955000Y-113807800D01*
G75*
G02*
X129963100Y-113799700I8100J0D01*
G01*
X130756900Y-113799700D01*
G75*
G02*
X130765000Y-113807800I0J-8100D01*
G01*
X130765000Y-114061600D01*
G75*
G02*
X130756900Y-114069700I-8100J0D01*
G01*
X129963100Y-114069700D01*
G75*
G02*
X129955000Y-114061600I0J8100D01*
G01*
G37*
G36*
G01*
X129955000Y-114561600D02*
X129955000Y-114307800D01*
G75*
G02*
X129963100Y-114299700I8100J0D01*
G01*
X130756900Y-114299700D01*
G75*
G02*
X130765000Y-114307800I0J-8100D01*
G01*
X130765000Y-114561600D01*
G75*
G02*
X130756900Y-114569700I-8100J0D01*
G01*
X129963100Y-114569700D01*
G75*
G02*
X129955000Y-114561600I0J8100D01*
G01*
G37*
G36*
G01*
X129955000Y-115061600D02*
X129955000Y-114807800D01*
G75*
G02*
X129963100Y-114799700I8100J0D01*
G01*
X130756900Y-114799700D01*
G75*
G02*
X130765000Y-114807800I0J-8100D01*
G01*
X130765000Y-115061600D01*
G75*
G02*
X130756900Y-115069700I-8100J0D01*
G01*
X129963100Y-115069700D01*
G75*
G02*
X129955000Y-115061600I0J8100D01*
G01*
G37*
G36*
G01*
X129955000Y-115561600D02*
X129955000Y-115307800D01*
G75*
G02*
X129963100Y-115299700I8100J0D01*
G01*
X130756900Y-115299700D01*
G75*
G02*
X130765000Y-115307800I0J-8100D01*
G01*
X130765000Y-115561600D01*
G75*
G02*
X130756900Y-115569700I-8100J0D01*
G01*
X129963100Y-115569700D01*
G75*
G02*
X129955000Y-115561600I0J8100D01*
G01*
G37*
G36*
G01*
X129955000Y-116061600D02*
X129955000Y-115807800D01*
G75*
G02*
X129963100Y-115799700I8100J0D01*
G01*
X130756900Y-115799700D01*
G75*
G02*
X130765000Y-115807800I0J-8100D01*
G01*
X130765000Y-116061600D01*
G75*
G02*
X130756900Y-116069700I-8100J0D01*
G01*
X129963100Y-116069700D01*
G75*
G02*
X129955000Y-116061600I0J8100D01*
G01*
G37*
G36*
G01*
X129955000Y-116561600D02*
X129955000Y-116307800D01*
G75*
G02*
X129963100Y-116299700I8100J0D01*
G01*
X130756900Y-116299700D01*
G75*
G02*
X130765000Y-116307800I0J-8100D01*
G01*
X130765000Y-116561600D01*
G75*
G02*
X130756900Y-116569700I-8100J0D01*
G01*
X129963100Y-116569700D01*
G75*
G02*
X129955000Y-116561600I0J8100D01*
G01*
G37*
G36*
G01*
X125055000Y-116561600D02*
X125055000Y-116307800D01*
G75*
G02*
X125063100Y-116299700I8100J0D01*
G01*
X125856900Y-116299700D01*
G75*
G02*
X125865000Y-116307800I0J-8100D01*
G01*
X125865000Y-116561600D01*
G75*
G02*
X125856900Y-116569700I-8100J0D01*
G01*
X125063100Y-116569700D01*
G75*
G02*
X125055000Y-116561600I0J8100D01*
G01*
G37*
G36*
G01*
X125055000Y-116061600D02*
X125055000Y-115807800D01*
G75*
G02*
X125063100Y-115799700I8100J0D01*
G01*
X125856900Y-115799700D01*
G75*
G02*
X125865000Y-115807800I0J-8100D01*
G01*
X125865000Y-116061600D01*
G75*
G02*
X125856900Y-116069700I-8100J0D01*
G01*
X125063100Y-116069700D01*
G75*
G02*
X125055000Y-116061600I0J8100D01*
G01*
G37*
G36*
G01*
X125055000Y-115561600D02*
X125055000Y-115307800D01*
G75*
G02*
X125063100Y-115299700I8100J0D01*
G01*
X125856900Y-115299700D01*
G75*
G02*
X125865000Y-115307800I0J-8100D01*
G01*
X125865000Y-115561600D01*
G75*
G02*
X125856900Y-115569700I-8100J0D01*
G01*
X125063100Y-115569700D01*
G75*
G02*
X125055000Y-115561600I0J8100D01*
G01*
G37*
G36*
G01*
X125055000Y-115061600D02*
X125055000Y-114807800D01*
G75*
G02*
X125063100Y-114799700I8100J0D01*
G01*
X125856900Y-114799700D01*
G75*
G02*
X125865000Y-114807800I0J-8100D01*
G01*
X125865000Y-115061600D01*
G75*
G02*
X125856900Y-115069700I-8100J0D01*
G01*
X125063100Y-115069700D01*
G75*
G02*
X125055000Y-115061600I0J8100D01*
G01*
G37*
G36*
G01*
X125055000Y-114561600D02*
X125055000Y-114307800D01*
G75*
G02*
X125063100Y-114299700I8100J0D01*
G01*
X125856900Y-114299700D01*
G75*
G02*
X125865000Y-114307800I0J-8100D01*
G01*
X125865000Y-114561600D01*
G75*
G02*
X125856900Y-114569700I-8100J0D01*
G01*
X125063100Y-114569700D01*
G75*
G02*
X125055000Y-114561600I0J8100D01*
G01*
G37*
G36*
G01*
X125055000Y-114061600D02*
X125055000Y-113807800D01*
G75*
G02*
X125063100Y-113799700I8100J0D01*
G01*
X125856900Y-113799700D01*
G75*
G02*
X125865000Y-113807800I0J-8100D01*
G01*
X125865000Y-114061600D01*
G75*
G02*
X125856900Y-114069700I-8100J0D01*
G01*
X125063100Y-114069700D01*
G75*
G02*
X125055000Y-114061600I0J8100D01*
G01*
G37*
G36*
G01*
X125055000Y-113561600D02*
X125055000Y-113307800D01*
G75*
G02*
X125063100Y-113299700I8100J0D01*
G01*
X125856900Y-113299700D01*
G75*
G02*
X125865000Y-113307800I0J-8100D01*
G01*
X125865000Y-113561600D01*
G75*
G02*
X125856900Y-113569700I-8100J0D01*
G01*
X125063100Y-113569700D01*
G75*
G02*
X125055000Y-113561600I0J8100D01*
G01*
G37*
G36*
G01*
X125055000Y-113061600D02*
X125055000Y-112807800D01*
G75*
G02*
X125063100Y-112799700I8100J0D01*
G01*
X125856900Y-112799700D01*
G75*
G02*
X125865000Y-112807800I0J-8100D01*
G01*
X125865000Y-113061600D01*
G75*
G02*
X125856900Y-113069700I-8100J0D01*
G01*
X125063100Y-113069700D01*
G75*
G02*
X125055000Y-113061600I0J8100D01*
G01*
G37*
G36*
G01*
X126025000Y-112612700D02*
X126025000Y-111856700D01*
G75*
G02*
X126052000Y-111829700I27000J0D01*
G01*
X126268000Y-111829700D01*
G75*
G02*
X126295000Y-111856700I0J-27000D01*
G01*
X126295000Y-112612700D01*
G75*
G02*
X126268000Y-112639700I-27000J0D01*
G01*
X126052000Y-112639700D01*
G75*
G02*
X126025000Y-112612700I0J27000D01*
G01*
G37*
G36*
G01*
X126525000Y-112612700D02*
X126525000Y-111856700D01*
G75*
G02*
X126552000Y-111829700I27000J0D01*
G01*
X126768000Y-111829700D01*
G75*
G02*
X126795000Y-111856700I0J-27000D01*
G01*
X126795000Y-112612700D01*
G75*
G02*
X126768000Y-112639700I-27000J0D01*
G01*
X126552000Y-112639700D01*
G75*
G02*
X126525000Y-112612700I0J27000D01*
G01*
G37*
G36*
G01*
X127025000Y-112612700D02*
X127025000Y-111856700D01*
G75*
G02*
X127052000Y-111829700I27000J0D01*
G01*
X127268000Y-111829700D01*
G75*
G02*
X127295000Y-111856700I0J-27000D01*
G01*
X127295000Y-112612700D01*
G75*
G02*
X127268000Y-112639700I-27000J0D01*
G01*
X127052000Y-112639700D01*
G75*
G02*
X127025000Y-112612700I0J27000D01*
G01*
G37*
G36*
G01*
X127525000Y-112612700D02*
X127525000Y-111856700D01*
G75*
G02*
X127552000Y-111829700I27000J0D01*
G01*
X127768000Y-111829700D01*
G75*
G02*
X127795000Y-111856700I0J-27000D01*
G01*
X127795000Y-112612700D01*
G75*
G02*
X127768000Y-112639700I-27000J0D01*
G01*
X127552000Y-112639700D01*
G75*
G02*
X127525000Y-112612700I0J27000D01*
G01*
G37*
G36*
G01*
X128025000Y-112612700D02*
X128025000Y-111856700D01*
G75*
G02*
X128052000Y-111829700I27000J0D01*
G01*
X128268000Y-111829700D01*
G75*
G02*
X128295000Y-111856700I0J-27000D01*
G01*
X128295000Y-112612700D01*
G75*
G02*
X128268000Y-112639700I-27000J0D01*
G01*
X128052000Y-112639700D01*
G75*
G02*
X128025000Y-112612700I0J27000D01*
G01*
G37*
G36*
G01*
X128525000Y-112612700D02*
X128525000Y-111856700D01*
G75*
G02*
X128552000Y-111829700I27000J0D01*
G01*
X128768000Y-111829700D01*
G75*
G02*
X128795000Y-111856700I0J-27000D01*
G01*
X128795000Y-112612700D01*
G75*
G02*
X128768000Y-112639700I-27000J0D01*
G01*
X128552000Y-112639700D01*
G75*
G02*
X128525000Y-112612700I0J27000D01*
G01*
G37*
G36*
G01*
X129025000Y-112612700D02*
X129025000Y-111856700D01*
G75*
G02*
X129052000Y-111829700I27000J0D01*
G01*
X129268000Y-111829700D01*
G75*
G02*
X129295000Y-111856700I0J-27000D01*
G01*
X129295000Y-112612700D01*
G75*
G02*
X129268000Y-112639700I-27000J0D01*
G01*
X129052000Y-112639700D01*
G75*
G02*
X129025000Y-112612700I0J27000D01*
G01*
G37*
G36*
G01*
X129525000Y-112612700D02*
X129525000Y-111856700D01*
G75*
G02*
X129552000Y-111829700I27000J0D01*
G01*
X129768000Y-111829700D01*
G75*
G02*
X129795000Y-111856700I0J-27000D01*
G01*
X129795000Y-112612700D01*
G75*
G02*
X129768000Y-112639700I-27000J0D01*
G01*
X129552000Y-112639700D01*
G75*
G02*
X129525000Y-112612700I0J27000D01*
G01*
G37*
G36*
G01*
X129525000Y-117512700D02*
X129525000Y-116756700D01*
G75*
G02*
X129552000Y-116729700I27000J0D01*
G01*
X129768000Y-116729700D01*
G75*
G02*
X129795000Y-116756700I0J-27000D01*
G01*
X129795000Y-117512700D01*
G75*
G02*
X129768000Y-117539700I-27000J0D01*
G01*
X129552000Y-117539700D01*
G75*
G02*
X129525000Y-117512700I0J27000D01*
G01*
G37*
G36*
G01*
X129025000Y-117512700D02*
X129025000Y-116756700D01*
G75*
G02*
X129052000Y-116729700I27000J0D01*
G01*
X129268000Y-116729700D01*
G75*
G02*
X129295000Y-116756700I0J-27000D01*
G01*
X129295000Y-117512700D01*
G75*
G02*
X129268000Y-117539700I-27000J0D01*
G01*
X129052000Y-117539700D01*
G75*
G02*
X129025000Y-117512700I0J27000D01*
G01*
G37*
G36*
G01*
X128525000Y-117512700D02*
X128525000Y-116756700D01*
G75*
G02*
X128552000Y-116729700I27000J0D01*
G01*
X128768000Y-116729700D01*
G75*
G02*
X128795000Y-116756700I0J-27000D01*
G01*
X128795000Y-117512700D01*
G75*
G02*
X128768000Y-117539700I-27000J0D01*
G01*
X128552000Y-117539700D01*
G75*
G02*
X128525000Y-117512700I0J27000D01*
G01*
G37*
G36*
G01*
X128025000Y-117512700D02*
X128025000Y-116756700D01*
G75*
G02*
X128052000Y-116729700I27000J0D01*
G01*
X128268000Y-116729700D01*
G75*
G02*
X128295000Y-116756700I0J-27000D01*
G01*
X128295000Y-117512700D01*
G75*
G02*
X128268000Y-117539700I-27000J0D01*
G01*
X128052000Y-117539700D01*
G75*
G02*
X128025000Y-117512700I0J27000D01*
G01*
G37*
G36*
G01*
X127525000Y-117512700D02*
X127525000Y-116756700D01*
G75*
G02*
X127552000Y-116729700I27000J0D01*
G01*
X127768000Y-116729700D01*
G75*
G02*
X127795000Y-116756700I0J-27000D01*
G01*
X127795000Y-117512700D01*
G75*
G02*
X127768000Y-117539700I-27000J0D01*
G01*
X127552000Y-117539700D01*
G75*
G02*
X127525000Y-117512700I0J27000D01*
G01*
G37*
G36*
G01*
X127025000Y-117512700D02*
X127025000Y-116756700D01*
G75*
G02*
X127052000Y-116729700I27000J0D01*
G01*
X127268000Y-116729700D01*
G75*
G02*
X127295000Y-116756700I0J-27000D01*
G01*
X127295000Y-117512700D01*
G75*
G02*
X127268000Y-117539700I-27000J0D01*
G01*
X127052000Y-117539700D01*
G75*
G02*
X127025000Y-117512700I0J27000D01*
G01*
G37*
G36*
G01*
X126525000Y-117512700D02*
X126525000Y-116756700D01*
G75*
G02*
X126552000Y-116729700I27000J0D01*
G01*
X126768000Y-116729700D01*
G75*
G02*
X126795000Y-116756700I0J-27000D01*
G01*
X126795000Y-117512700D01*
G75*
G02*
X126768000Y-117539700I-27000J0D01*
G01*
X126552000Y-117539700D01*
G75*
G02*
X126525000Y-117512700I0J27000D01*
G01*
G37*
G36*
G01*
X126025000Y-117512700D02*
X126025000Y-116756700D01*
G75*
G02*
X126052000Y-116729700I27000J0D01*
G01*
X126268000Y-116729700D01*
G75*
G02*
X126295000Y-116756700I0J-27000D01*
G01*
X126295000Y-117512700D01*
G75*
G02*
X126268000Y-117539700I-27000J0D01*
G01*
X126052000Y-117539700D01*
G75*
G02*
X126025000Y-117512700I0J27000D01*
G01*
G37*
%TD*%
%TO.C,R12*%
G36*
G01*
X142780000Y-120419700D02*
X143150000Y-120419700D01*
G75*
G02*
X143285000Y-120554700I0J-135000D01*
G01*
X143285000Y-120824700D01*
G75*
G02*
X143150000Y-120959700I-135000J0D01*
G01*
X142780000Y-120959700D01*
G75*
G02*
X142645000Y-120824700I0J135000D01*
G01*
X142645000Y-120554700D01*
G75*
G02*
X142780000Y-120419700I135000J0D01*
G01*
G37*
G36*
G01*
X142780000Y-119399700D02*
X143150000Y-119399700D01*
G75*
G02*
X143285000Y-119534700I0J-135000D01*
G01*
X143285000Y-119804700D01*
G75*
G02*
X143150000Y-119939700I-135000J0D01*
G01*
X142780000Y-119939700D01*
G75*
G02*
X142645000Y-119804700I0J135000D01*
G01*
X142645000Y-119534700D01*
G75*
G02*
X142780000Y-119399700I135000J0D01*
G01*
G37*
%TD*%
%TO.C,R11*%
G36*
G01*
X140039380Y-116600000D02*
X139669380Y-116600000D01*
G75*
G02*
X139534380Y-116465000I0J135000D01*
G01*
X139534380Y-116195000D01*
G75*
G02*
X139669380Y-116060000I135000J0D01*
G01*
X140039380Y-116060000D01*
G75*
G02*
X140174380Y-116195000I0J-135000D01*
G01*
X140174380Y-116465000D01*
G75*
G02*
X140039380Y-116600000I-135000J0D01*
G01*
G37*
G36*
G01*
X140039380Y-117620000D02*
X139669380Y-117620000D01*
G75*
G02*
X139534380Y-117485000I0J135000D01*
G01*
X139534380Y-117215000D01*
G75*
G02*
X139669380Y-117080000I135000J0D01*
G01*
X140039380Y-117080000D01*
G75*
G02*
X140174380Y-117215000I0J-135000D01*
G01*
X140174380Y-117485000D01*
G75*
G02*
X140039380Y-117620000I-135000J0D01*
G01*
G37*
%TD*%
%TO.C,R10*%
G36*
G01*
X140977000Y-120419700D02*
X141347000Y-120419700D01*
G75*
G02*
X141482000Y-120554700I0J-135000D01*
G01*
X141482000Y-120824700D01*
G75*
G02*
X141347000Y-120959700I-135000J0D01*
G01*
X140977000Y-120959700D01*
G75*
G02*
X140842000Y-120824700I0J135000D01*
G01*
X140842000Y-120554700D01*
G75*
G02*
X140977000Y-120419700I135000J0D01*
G01*
G37*
G36*
G01*
X140977000Y-119399700D02*
X141347000Y-119399700D01*
G75*
G02*
X141482000Y-119534700I0J-135000D01*
G01*
X141482000Y-119804700D01*
G75*
G02*
X141347000Y-119939700I-135000J0D01*
G01*
X140977000Y-119939700D01*
G75*
G02*
X140842000Y-119804700I0J135000D01*
G01*
X140842000Y-119534700D01*
G75*
G02*
X140977000Y-119399700I135000J0D01*
G01*
G37*
%TD*%
%TO.C,R9*%
G36*
G01*
X135111900Y-124720000D02*
X135481900Y-124720000D01*
G75*
G02*
X135616900Y-124855000I0J-135000D01*
G01*
X135616900Y-125125000D01*
G75*
G02*
X135481900Y-125260000I-135000J0D01*
G01*
X135111900Y-125260000D01*
G75*
G02*
X134976900Y-125125000I0J135000D01*
G01*
X134976900Y-124855000D01*
G75*
G02*
X135111900Y-124720000I135000J0D01*
G01*
G37*
G36*
G01*
X135111900Y-123700000D02*
X135481900Y-123700000D01*
G75*
G02*
X135616900Y-123835000I0J-135000D01*
G01*
X135616900Y-124105000D01*
G75*
G02*
X135481900Y-124240000I-135000J0D01*
G01*
X135111900Y-124240000D01*
G75*
G02*
X134976900Y-124105000I0J135000D01*
G01*
X134976900Y-123835000D01*
G75*
G02*
X135111900Y-123700000I135000J0D01*
G01*
G37*
%TD*%
%TO.C,R8*%
G36*
G01*
X126425000Y-118560000D02*
X126055000Y-118560000D01*
G75*
G02*
X125920000Y-118425000I0J135000D01*
G01*
X125920000Y-118155000D01*
G75*
G02*
X126055000Y-118020000I135000J0D01*
G01*
X126425000Y-118020000D01*
G75*
G02*
X126560000Y-118155000I0J-135000D01*
G01*
X126560000Y-118425000D01*
G75*
G02*
X126425000Y-118560000I-135000J0D01*
G01*
G37*
G36*
G01*
X126425000Y-119580000D02*
X126055000Y-119580000D01*
G75*
G02*
X125920000Y-119445000I0J135000D01*
G01*
X125920000Y-119175000D01*
G75*
G02*
X126055000Y-119040000I135000J0D01*
G01*
X126425000Y-119040000D01*
G75*
G02*
X126560000Y-119175000I0J-135000D01*
G01*
X126560000Y-119445000D01*
G75*
G02*
X126425000Y-119580000I-135000J0D01*
G01*
G37*
%TD*%
%TO.C,R7*%
G36*
G01*
X139624000Y-125635000D02*
X139624000Y-125265000D01*
G75*
G02*
X139759000Y-125130000I135000J0D01*
G01*
X140029000Y-125130000D01*
G75*
G02*
X140164000Y-125265000I0J-135000D01*
G01*
X140164000Y-125635000D01*
G75*
G02*
X140029000Y-125770000I-135000J0D01*
G01*
X139759000Y-125770000D01*
G75*
G02*
X139624000Y-125635000I0J135000D01*
G01*
G37*
G36*
G01*
X138604000Y-125635000D02*
X138604000Y-125265000D01*
G75*
G02*
X138739000Y-125130000I135000J0D01*
G01*
X139009000Y-125130000D01*
G75*
G02*
X139144000Y-125265000I0J-135000D01*
G01*
X139144000Y-125635000D01*
G75*
G02*
X139009000Y-125770000I-135000J0D01*
G01*
X138739000Y-125770000D01*
G75*
G02*
X138604000Y-125635000I0J135000D01*
G01*
G37*
%TD*%
%TO.C,R6*%
G36*
G01*
X132939000Y-124720000D02*
X133309000Y-124720000D01*
G75*
G02*
X133444000Y-124855000I0J-135000D01*
G01*
X133444000Y-125125000D01*
G75*
G02*
X133309000Y-125260000I-135000J0D01*
G01*
X132939000Y-125260000D01*
G75*
G02*
X132804000Y-125125000I0J135000D01*
G01*
X132804000Y-124855000D01*
G75*
G02*
X132939000Y-124720000I135000J0D01*
G01*
G37*
G36*
G01*
X132939000Y-123700000D02*
X133309000Y-123700000D01*
G75*
G02*
X133444000Y-123835000I0J-135000D01*
G01*
X133444000Y-124105000D01*
G75*
G02*
X133309000Y-124240000I-135000J0D01*
G01*
X132939000Y-124240000D01*
G75*
G02*
X132804000Y-124105000I0J135000D01*
G01*
X132804000Y-123835000D01*
G75*
G02*
X132939000Y-123700000I135000J0D01*
G01*
G37*
%TD*%
%TO.C,R5*%
G36*
G01*
X124135000Y-115299700D02*
X124505000Y-115299700D01*
G75*
G02*
X124640000Y-115434700I0J-135000D01*
G01*
X124640000Y-115704700D01*
G75*
G02*
X124505000Y-115839700I-135000J0D01*
G01*
X124135000Y-115839700D01*
G75*
G02*
X124000000Y-115704700I0J135000D01*
G01*
X124000000Y-115434700D01*
G75*
G02*
X124135000Y-115299700I135000J0D01*
G01*
G37*
G36*
G01*
X124135000Y-114279700D02*
X124505000Y-114279700D01*
G75*
G02*
X124640000Y-114414700I0J-135000D01*
G01*
X124640000Y-114684700D01*
G75*
G02*
X124505000Y-114819700I-135000J0D01*
G01*
X124135000Y-114819700D01*
G75*
G02*
X124000000Y-114684700I0J135000D01*
G01*
X124000000Y-114414700D01*
G75*
G02*
X124135000Y-114279700I135000J0D01*
G01*
G37*
%TD*%
%TO.C,R4*%
G36*
G01*
X128660000Y-118560000D02*
X128290000Y-118560000D01*
G75*
G02*
X128155000Y-118425000I0J135000D01*
G01*
X128155000Y-118155000D01*
G75*
G02*
X128290000Y-118020000I135000J0D01*
G01*
X128660000Y-118020000D01*
G75*
G02*
X128795000Y-118155000I0J-135000D01*
G01*
X128795000Y-118425000D01*
G75*
G02*
X128660000Y-118560000I-135000J0D01*
G01*
G37*
G36*
G01*
X128660000Y-119580000D02*
X128290000Y-119580000D01*
G75*
G02*
X128155000Y-119445000I0J135000D01*
G01*
X128155000Y-119175000D01*
G75*
G02*
X128290000Y-119040000I135000J0D01*
G01*
X128660000Y-119040000D01*
G75*
G02*
X128795000Y-119175000I0J-135000D01*
G01*
X128795000Y-119445000D01*
G75*
G02*
X128660000Y-119580000I-135000J0D01*
G01*
G37*
%TD*%
%TO.C,R3*%
G36*
G01*
X132665000Y-117945000D02*
X132295000Y-117945000D01*
G75*
G02*
X132160000Y-117810000I0J135000D01*
G01*
X132160000Y-117540000D01*
G75*
G02*
X132295000Y-117405000I135000J0D01*
G01*
X132665000Y-117405000D01*
G75*
G02*
X132800000Y-117540000I0J-135000D01*
G01*
X132800000Y-117810000D01*
G75*
G02*
X132665000Y-117945000I-135000J0D01*
G01*
G37*
G36*
G01*
X132665000Y-118965000D02*
X132295000Y-118965000D01*
G75*
G02*
X132160000Y-118830000I0J135000D01*
G01*
X132160000Y-118560000D01*
G75*
G02*
X132295000Y-118425000I135000J0D01*
G01*
X132665000Y-118425000D01*
G75*
G02*
X132800000Y-118560000I0J-135000D01*
G01*
X132800000Y-118830000D01*
G75*
G02*
X132665000Y-118965000I-135000J0D01*
G01*
G37*
%TD*%
%TO.C,R2*%
G36*
G01*
X124050000Y-113115000D02*
X124050000Y-112745000D01*
G75*
G02*
X124185000Y-112610000I135000J0D01*
G01*
X124455000Y-112610000D01*
G75*
G02*
X124590000Y-112745000I0J-135000D01*
G01*
X124590000Y-113115000D01*
G75*
G02*
X124455000Y-113250000I-135000J0D01*
G01*
X124185000Y-113250000D01*
G75*
G02*
X124050000Y-113115000I0J135000D01*
G01*
G37*
G36*
G01*
X123030000Y-113115000D02*
X123030000Y-112745000D01*
G75*
G02*
X123165000Y-112610000I135000J0D01*
G01*
X123435000Y-112610000D01*
G75*
G02*
X123570000Y-112745000I0J-135000D01*
G01*
X123570000Y-113115000D01*
G75*
G02*
X123435000Y-113250000I-135000J0D01*
G01*
X123165000Y-113250000D01*
G75*
G02*
X123030000Y-113115000I0J135000D01*
G01*
G37*
%TD*%
%TO.C,R1*%
G36*
G01*
X123065000Y-115299700D02*
X123435000Y-115299700D01*
G75*
G02*
X123570000Y-115434700I0J-135000D01*
G01*
X123570000Y-115704700D01*
G75*
G02*
X123435000Y-115839700I-135000J0D01*
G01*
X123065000Y-115839700D01*
G75*
G02*
X122930000Y-115704700I0J135000D01*
G01*
X122930000Y-115434700D01*
G75*
G02*
X123065000Y-115299700I135000J0D01*
G01*
G37*
G36*
G01*
X123065000Y-114279700D02*
X123435000Y-114279700D01*
G75*
G02*
X123570000Y-114414700I0J-135000D01*
G01*
X123570000Y-114684700D01*
G75*
G02*
X123435000Y-114819700I-135000J0D01*
G01*
X123065000Y-114819700D01*
G75*
G02*
X122930000Y-114684700I0J135000D01*
G01*
X122930000Y-114414700D01*
G75*
G02*
X123065000Y-114279700I135000J0D01*
G01*
G37*
%TD*%
D21*
%TO.C,D3*%
X137824000Y-122630000D03*
X136424000Y-122630000D03*
%TD*%
%TO.C,D2*%
X136424000Y-125450000D03*
X137824000Y-125450000D03*
%TD*%
%TO.C,D1*%
X137824000Y-124040000D03*
X136424000Y-124040000D03*
%TD*%
%TO.C,C10*%
G36*
G01*
X137646640Y-119052660D02*
X137646640Y-119392660D01*
G75*
G02*
X137506640Y-119532660I-140000J0D01*
G01*
X137226640Y-119532660D01*
G75*
G02*
X137086640Y-119392660I0J140000D01*
G01*
X137086640Y-119052660D01*
G75*
G02*
X137226640Y-118912660I140000J0D01*
G01*
X137506640Y-118912660D01*
G75*
G02*
X137646640Y-119052660I0J-140000D01*
G01*
G37*
G36*
G01*
X138606640Y-119052660D02*
X138606640Y-119392660D01*
G75*
G02*
X138466640Y-119532660I-140000J0D01*
G01*
X138186640Y-119532660D01*
G75*
G02*
X138046640Y-119392660I0J140000D01*
G01*
X138046640Y-119052660D01*
G75*
G02*
X138186640Y-118912660I140000J0D01*
G01*
X138466640Y-118912660D01*
G75*
G02*
X138606640Y-119052660I0J-140000D01*
G01*
G37*
%TD*%
%TO.C,C9*%
G36*
G01*
X140290000Y-123289000D02*
X139950000Y-123289000D01*
G75*
G02*
X139810000Y-123149000I0J140000D01*
G01*
X139810000Y-122869000D01*
G75*
G02*
X139950000Y-122729000I140000J0D01*
G01*
X140290000Y-122729000D01*
G75*
G02*
X140430000Y-122869000I0J-140000D01*
G01*
X140430000Y-123149000D01*
G75*
G02*
X140290000Y-123289000I-140000J0D01*
G01*
G37*
G36*
G01*
X140290000Y-124249000D02*
X139950000Y-124249000D01*
G75*
G02*
X139810000Y-124109000I0J140000D01*
G01*
X139810000Y-123829000D01*
G75*
G02*
X139950000Y-123689000I140000J0D01*
G01*
X140290000Y-123689000D01*
G75*
G02*
X140430000Y-123829000I0J-140000D01*
G01*
X140430000Y-124109000D01*
G75*
G02*
X140290000Y-124249000I-140000J0D01*
G01*
G37*
%TD*%
%TO.C,C8*%
G36*
G01*
X134402640Y-124280000D02*
X134062640Y-124280000D01*
G75*
G02*
X133922640Y-124140000I0J140000D01*
G01*
X133922640Y-123860000D01*
G75*
G02*
X134062640Y-123720000I140000J0D01*
G01*
X134402640Y-123720000D01*
G75*
G02*
X134542640Y-123860000I0J-140000D01*
G01*
X134542640Y-124140000D01*
G75*
G02*
X134402640Y-124280000I-140000J0D01*
G01*
G37*
G36*
G01*
X134402640Y-125240000D02*
X134062640Y-125240000D01*
G75*
G02*
X133922640Y-125100000I0J140000D01*
G01*
X133922640Y-124820000D01*
G75*
G02*
X134062640Y-124680000I140000J0D01*
G01*
X134402640Y-124680000D01*
G75*
G02*
X134542640Y-124820000I0J-140000D01*
G01*
X134542640Y-125100000D01*
G75*
G02*
X134402640Y-125240000I-140000J0D01*
G01*
G37*
%TD*%
%TO.C,C7*%
G36*
G01*
X138046640Y-118386820D02*
X138046640Y-118046820D01*
G75*
G02*
X138186640Y-117906820I140000J0D01*
G01*
X138466640Y-117906820D01*
G75*
G02*
X138606640Y-118046820I0J-140000D01*
G01*
X138606640Y-118386820D01*
G75*
G02*
X138466640Y-118526820I-140000J0D01*
G01*
X138186640Y-118526820D01*
G75*
G02*
X138046640Y-118386820I0J140000D01*
G01*
G37*
G36*
G01*
X137086640Y-118386820D02*
X137086640Y-118046820D01*
G75*
G02*
X137226640Y-117906820I140000J0D01*
G01*
X137506640Y-117906820D01*
G75*
G02*
X137646640Y-118046820I0J-140000D01*
G01*
X137646640Y-118386820D01*
G75*
G02*
X137506640Y-118526820I-140000J0D01*
G01*
X137226640Y-118526820D01*
G75*
G02*
X137086640Y-118386820I0J140000D01*
G01*
G37*
%TD*%
%TO.C,C6*%
G36*
G01*
X127505000Y-118600000D02*
X127165000Y-118600000D01*
G75*
G02*
X127025000Y-118460000I0J140000D01*
G01*
X127025000Y-118180000D01*
G75*
G02*
X127165000Y-118040000I140000J0D01*
G01*
X127505000Y-118040000D01*
G75*
G02*
X127645000Y-118180000I0J-140000D01*
G01*
X127645000Y-118460000D01*
G75*
G02*
X127505000Y-118600000I-140000J0D01*
G01*
G37*
G36*
G01*
X127505000Y-119560000D02*
X127165000Y-119560000D01*
G75*
G02*
X127025000Y-119420000I0J140000D01*
G01*
X127025000Y-119140000D01*
G75*
G02*
X127165000Y-119000000I140000J0D01*
G01*
X127505000Y-119000000D01*
G75*
G02*
X127645000Y-119140000I0J-140000D01*
G01*
X127645000Y-119420000D01*
G75*
G02*
X127505000Y-119560000I-140000J0D01*
G01*
G37*
%TD*%
%TO.C,C5*%
G36*
G01*
X128949040Y-109355000D02*
X129289040Y-109355000D01*
G75*
G02*
X129429040Y-109495000I0J-140000D01*
G01*
X129429040Y-109775000D01*
G75*
G02*
X129289040Y-109915000I-140000J0D01*
G01*
X128949040Y-109915000D01*
G75*
G02*
X128809040Y-109775000I0J140000D01*
G01*
X128809040Y-109495000D01*
G75*
G02*
X128949040Y-109355000I140000J0D01*
G01*
G37*
G36*
G01*
X128949040Y-108395000D02*
X129289040Y-108395000D01*
G75*
G02*
X129429040Y-108535000I0J-140000D01*
G01*
X129429040Y-108815000D01*
G75*
G02*
X129289040Y-108955000I-140000J0D01*
G01*
X128949040Y-108955000D01*
G75*
G02*
X128809040Y-108815000I0J140000D01*
G01*
X128809040Y-108535000D01*
G75*
G02*
X128949040Y-108395000I140000J0D01*
G01*
G37*
%TD*%
%TO.C,C4*%
G36*
G01*
X125525120Y-109355000D02*
X125865120Y-109355000D01*
G75*
G02*
X126005120Y-109495000I0J-140000D01*
G01*
X126005120Y-109775000D01*
G75*
G02*
X125865120Y-109915000I-140000J0D01*
G01*
X125525120Y-109915000D01*
G75*
G02*
X125385120Y-109775000I0J140000D01*
G01*
X125385120Y-109495000D01*
G75*
G02*
X125525120Y-109355000I140000J0D01*
G01*
G37*
G36*
G01*
X125525120Y-108395000D02*
X125865120Y-108395000D01*
G75*
G02*
X126005120Y-108535000I0J-140000D01*
G01*
X126005120Y-108815000D01*
G75*
G02*
X125865120Y-108955000I-140000J0D01*
G01*
X125525120Y-108955000D01*
G75*
G02*
X125385120Y-108815000I0J140000D01*
G01*
X125385120Y-108535000D01*
G75*
G02*
X125525120Y-108395000I140000J0D01*
G01*
G37*
%TD*%
%TO.C,C3*%
G36*
G01*
X124450000Y-111460010D02*
X124450000Y-111800010D01*
G75*
G02*
X124310000Y-111940010I-140000J0D01*
G01*
X124030000Y-111940010D01*
G75*
G02*
X123890000Y-111800010I0J140000D01*
G01*
X123890000Y-111460010D01*
G75*
G02*
X124030000Y-111320010I140000J0D01*
G01*
X124310000Y-111320010D01*
G75*
G02*
X124450000Y-111460010I0J-140000D01*
G01*
G37*
G36*
G01*
X125410000Y-111460010D02*
X125410000Y-111800010D01*
G75*
G02*
X125270000Y-111940010I-140000J0D01*
G01*
X124990000Y-111940010D01*
G75*
G02*
X124850000Y-111800010I0J140000D01*
G01*
X124850000Y-111460010D01*
G75*
G02*
X124990000Y-111320010I140000J0D01*
G01*
X125270000Y-111320010D01*
G75*
G02*
X125410000Y-111460010I0J-140000D01*
G01*
G37*
%TD*%
%TO.C,C2*%
G36*
G01*
X124420000Y-110400000D02*
X124420000Y-110740000D01*
G75*
G02*
X124280000Y-110880000I-140000J0D01*
G01*
X124000000Y-110880000D01*
G75*
G02*
X123860000Y-110740000I0J140000D01*
G01*
X123860000Y-110400000D01*
G75*
G02*
X124000000Y-110260000I140000J0D01*
G01*
X124280000Y-110260000D01*
G75*
G02*
X124420000Y-110400000I0J-140000D01*
G01*
G37*
G36*
G01*
X125380000Y-110400000D02*
X125380000Y-110740000D01*
G75*
G02*
X125240000Y-110880000I-140000J0D01*
G01*
X124960000Y-110880000D01*
G75*
G02*
X124820000Y-110740000I0J140000D01*
G01*
X124820000Y-110400000D01*
G75*
G02*
X124960000Y-110260000I140000J0D01*
G01*
X125240000Y-110260000D01*
G75*
G02*
X125380000Y-110400000I0J-140000D01*
G01*
G37*
%TD*%
%TO.C,C1*%
G36*
G01*
X131423000Y-116154700D02*
X131763000Y-116154700D01*
G75*
G02*
X131903000Y-116294700I0J-140000D01*
G01*
X131903000Y-116574700D01*
G75*
G02*
X131763000Y-116714700I-140000J0D01*
G01*
X131423000Y-116714700D01*
G75*
G02*
X131283000Y-116574700I0J140000D01*
G01*
X131283000Y-116294700D01*
G75*
G02*
X131423000Y-116154700I140000J0D01*
G01*
G37*
G36*
G01*
X131423000Y-115194700D02*
X131763000Y-115194700D01*
G75*
G02*
X131903000Y-115334700I0J-140000D01*
G01*
X131903000Y-115614700D01*
G75*
G02*
X131763000Y-115754700I-140000J0D01*
G01*
X131423000Y-115754700D01*
G75*
G02*
X131283000Y-115614700I0J140000D01*
G01*
X131283000Y-115334700D01*
G75*
G02*
X131423000Y-115194700I140000J0D01*
G01*
G37*
%TD*%
M02*
