M48
INCH,TZ
T1C0.0157
T2C0.0197
%
G90
G05
T1
X48598Y-42795
X48748Y-44791
X48957Y-43083
X49795Y-47358
X49807Y-44876
X49807Y-45427
X50083Y-44600
X50083Y-44876
X50083Y-45151
X50083Y-45427
X50083Y-45703
X50358Y-44876
X50358Y-45427
X50634Y-44600
X50634Y-44876
X50634Y-45151
X50634Y-45427
X50634Y-45703
X50909Y-44876
X50909Y-45427
X50957Y-46972
X51228Y-43020
X51354Y-46524
X51386Y-43980
X51705Y-43646
X51913Y-43980
X52134Y-44902
X52291Y-45697
X52913Y-45465
X53224Y-44992
X53266Y-49511
X53571Y-47283
X53858Y-44331
X54047Y-45756
X54081Y-47304
X54459Y-47308
X54700Y-48300
X55043Y-43945
X55051Y-42965
X55055Y-47642
X55540Y-48807
X55576Y-47996
X55929Y-42980
X55999Y-46201
X56285Y-47996
X56311Y-48429
T2
X55933Y-45126
X55933Y-45520
T0
M30
